<?xml version="1.0" standalone="no"?>
<!DOCTYPE svg PUBLIC "-//W3C//DTD SVG 20010904//EN"
 "http://www.w3.org/TR/2001/REC-SVG-20010904/DTD/svg10.dtd">
<svg version="1.0" xmlns="http://www.w3.org/2000/svg"
 width="512.000000pt" height="512.000000pt" viewBox="0 0 512.000000 512.000000"
 preserveAspectRatio="xMidYMid meet">

<g transform="translate(0.000000,512.000000) scale(0.100000,-0.100000)"
fill="#000000" stroke="none">
<path d="M3795 4989 c-250 -33 -502 -159 -684 -340 -95 -96 -207 -258 -248
-360 l-28 -69 -1042 0 -1042 0 -28 -24 -28 -24 -6 -574 c-4 -315 -7 -827 -8
-1138 0 -311 -4 -717 -8 -902 l-6 -338 -309 0 -309 0 -25 -25 -26 -26 4 -257
c4 -233 6 -263 27 -327 55 -171 175 -311 333 -388 51 -25 122 -52 158 -59 52
-10 348 -13 1435 -13 1299 0 1373 1 1435 18 184 52 333 174 415 339 77 157 75
122 75 1204 l0 954 73 0 c302 1 595 126 818 349 243 242 363 554 346 891 -29
538 -415 985 -946 1095 -93 19 -285 27 -376 14z m316 -175 c429 -73 760 -408
829 -837 20 -120 8 -320 -24 -432 -95 -322 -334 -575 -644 -681 -132 -45 -222
-57 -377 -51 -156 6 -248 28 -382 92 -282 133 -478 375 -555 682 -30 118 -32
330 -4 448 65 281 236 515 481 657 207 119 442 162 676 122z m-1333 -816 c-27
-161 -1 -420 57 -575 14 -36 25 -67 25 -69 0 -2 -178 -4 -396 -4 -404 0 -422
-2 -451 -39 -16 -21 -16 -71 0 -92 29 -38 45 -39 500 -39 l444 0 39 -57 c55
-81 185 -208 277 -271 97 -67 237 -134 347 -165 l85 -25 3 -968 c1 -668 -1
-985 -9 -1022 -17 -85 -72 -182 -137 -244 -255 -244 -663 -150 -794 181 -20
51 -22 79 -27 314 -6 257 -6 259 -30 278 -22 18 -53 19 -948 19 l-925 0 6
1123 c3 617 9 1254 12 1415 l6 292 963 0 962 0 -9 -52z m-205 -3140 c5 -220
12 -259 69 -373 33 -65 86 -137 127 -172 l26 -23 -1100 0 c-944 0 -1109 2
-1158 15 -164 43 -293 163 -346 322 -18 54 -21 87 -21 248 l0 185 1199 0 1199
0 5 -202z"/>
<path d="M3875 4565 c-20 -20 -25 -34 -25 -78 l0 -54 -64 -32 c-72 -35 -132
-96 -168 -169 -19 -40 -23 -63 -23 -147 0 -90 3 -105 28 -153 59 -113 154
-176 289 -193 90 -11 120 -24 160 -66 108 -114 27 -303 -132 -305 -97 0 -173
67 -186 165 -9 63 -39 97 -87 97 -51 0 -77 -33 -77 -98 0 -117 87 -247 201
-299 l59 -27 0 -61 c0 -51 4 -65 23 -83 32 -30 81 -29 112 3 21 20 25 34 25
84 0 57 1 60 28 65 48 11 129 64 166 109 60 74 80 130 81 227 0 77 -3 92 -33
152 -56 115 -156 182 -294 197 -84 10 -125 27 -162 71 -75 90 -46 229 59 280
118 57 243 -12 265 -146 12 -71 35 -98 86 -98 28 0 42 7 60 28 29 33 31 73 5
155 -31 101 -98 174 -198 218 l-63 27 0 54 c0 64 -30 102 -80 102 -19 0 -40
-9 -55 -25z"/>
<path d="M1487 3510 c-122 -31 -201 -128 -201 -250 0 -236 299 -345 459 -168
20 22 43 55 51 74 21 51 18 150 -7 200 -23 49 -86 110 -133 129 -45 19 -124
26 -169 15z m112 -175 c88 -45 45 -165 -59 -165 -43 0 -90 47 -90 90 0 43 47
90 90 90 17 0 44 -7 59 -15z"/>
<path d="M1492 2789 c-125 -25 -226 -162 -207 -282 10 -61 54 -136 99 -169 41
-30 122 -58 166 -58 91 0 198 69 240 154 24 51 27 147 5 199 -47 113 -179 181
-303 156z m107 -174 c16 -8 34 -27 40 -43 39 -94 -86 -166 -160 -93 -78 79 19
189 120 136z"/>
<path d="M2025 2595 c-31 -30 -32 -73 -4 -109 l20 -26 590 0 590 0 24 25 c16
15 25 36 25 55 0 19 -9 40 -25 55 l-24 25 -586 0 -586 0 -24 -25z"/>
<path d="M1450 2057 c-19 -6 -58 -34 -87 -62 -89 -87 -104 -195 -42 -304 45
-78 138 -131 231 -131 60 0 139 35 185 82 53 54 73 102 73 175 -1 147 -111
254 -260 252 -36 -1 -81 -6 -100 -12z m149 -162 c16 -8 34 -27 40 -43 39 -94
-86 -166 -160 -93 -45 45 -37 105 19 135 35 19 66 20 101 1z"/>
<path d="M2060 1893 c-57 -21 -78 -89 -41 -134 l19 -24 578 -3 c401 -2 587 1
605 8 51 21 63 83 25 127 l-24 28 -574 2 c-315 1 -580 -1 -588 -4z"/>
</g>
</svg>
